<svg xmlns="http://www.w3.org/2000/svg" width="1200" height="360" viewBox="0 0 1200 360" role="img" aria-label="Encryption and decryption shift example">
  <rect width="1200" height="360" fill="#f8fbff"/>

  <rect x="20" y="110" width="210" height="95" fill="#ffffff" stroke="#111827" stroke-width="3"/>
  <text x="125" y="168" text-anchor="middle" font-size="44" fill="#111827" font-family="sans-serif">タコヤキ</text>

  <rect x="970" y="115" width="210" height="95" fill="#ffffff" stroke="#111827" stroke-width="3"/>
  <text x="1075" y="173" text-anchor="middle" font-size="44" fill="#111827" font-family="sans-serif">チサユク</text>

  <line x1="310" y1="120" x2="870" y2="120" stroke="#ff0000" stroke-width="18"/>
  <polygon points="870,105 920,120 870,135" fill="#ff0000"/>
  <text x="605" y="88" text-anchor="middle" font-size="50" fill="#111827" font-family="sans-serif">暗号化</text>

  <line x1="870" y1="220" x2="310" y2="220" stroke="#ff0000" stroke-width="18"/>
  <polygon points="310,205 260,220 310,235" fill="#ff0000"/>
  <text x="605" y="286" text-anchor="middle" font-size="50" fill="#111827" font-family="sans-serif">復号</text>

  <g transform="translate(700,85) rotate(-18)">
    <rect x="0" y="0" width="62" height="28" rx="3" fill="#9ca3af"/>
    <circle cx="45" cy="14" r="4" fill="#e5e7eb"/>
    <rect x="12" y="28" width="18" height="90" fill="#9ca3af"/>
    <polygon points="12,118 30,118 26,150 16,150" fill="#9ca3af"/>
  </g>
  <g transform="translate(515,190) rotate(-35)">
    <rect x="0" y="0" width="62" height="28" rx="3" fill="#9ca3af"/>
    <circle cx="45" cy="14" r="4" fill="#e5e7eb"/>
    <rect x="12" y="28" width="18" height="90" fill="#9ca3af"/>
    <polygon points="12,118 30,118 26,150 16,150" fill="#9ca3af"/>
  </g>
</svg>
